<svg width="28" height="28" viewBox="0 0 28 28" fill="none" xmlns="http://www.w3.org/2000/svg">
<path d="M4.9 28C3.54667 28 2.39167 27.5217 1.435 26.565C0.478333 25.6083 0 24.4533 0 23.1C0 21.7467 0.478333 20.5917 1.435 19.635C2.39167 18.6783 3.54667 18.2 4.9 18.2C5.32 18.2 5.72833 18.2525 6.125 18.3575C6.52167 18.4625 6.895 18.6083 7.245 18.795L12.6 13.44V9.59C11.5733 9.28667 10.7333 8.70917 10.08 7.8575C9.42667 7.00583 9.1 6.02 9.1 4.9C9.1 3.54667 9.57833 2.39167 10.535 1.435C11.4917 0.478333 12.6467 0 14 0C15.3533 0 16.5083 0.478333 17.465 1.435C18.4217 2.39167 18.9 3.54667 18.9 4.9C18.9 6.02 18.5733 7.00583 17.92 7.8575C17.2667 8.70917 16.4267 9.28667 15.4 9.59V13.44L20.79 18.795C21.14 18.6083 21.5075 18.4625 21.8925 18.3575C22.2775 18.2525 22.68 18.2 23.1 18.2C24.4533 18.2 25.6083 18.6783 26.565 19.635C27.5217 20.5917 28 21.7467 28 23.1C28 24.4533 27.5217 25.6083 26.565 26.565C25.6083 27.5217 24.4533 28 23.1 28C21.7467 28 20.5917 27.5217 19.635 26.565C18.6783 25.6083 18.2 24.4533 18.2 23.1C18.2 22.68 18.2525 22.2717 18.3575 21.875C18.4625 21.4783 18.6083 21.105 18.795 20.755L14 15.96L9.205 20.755C9.39167 21.105 9.5375 21.4783 9.6425 21.875C9.7475 22.2717 9.8 22.68 9.8 23.1C9.8 24.4533 9.32167 25.6083 8.365 26.565C7.40833 27.5217 6.25333 28 4.9 28ZM23.1 25.2C23.6833 25.2 24.1792 24.9958 24.5875 24.5875C24.9958 24.1792 25.2 23.6833 25.2 23.1C25.2 22.5167 24.9958 22.0208 24.5875 21.6125C24.1792 21.2042 23.6833 21 23.1 21C22.5167 21 22.0208 21.2042 21.6125 21.6125C21.2042 22.0208 21 22.5167 21 23.1C21 23.6833 21.2042 24.1792 21.6125 24.5875C22.0208 24.9958 22.5167 25.2 23.1 25.2ZM14 7C14.5833 7 15.0792 6.79583 15.4875 6.3875C15.8958 5.97917 16.1 5.48333 16.1 4.9C16.1 4.31667 15.8958 3.82083 15.4875 3.4125C15.0792 3.00417 14.5833 2.8 14 2.8C13.4167 2.8 12.9208 3.00417 12.5125 3.4125C12.1042 3.82083 11.9 4.31667 11.9 4.9C11.9 5.48333 12.1042 5.97917 12.5125 6.3875C12.9208 6.79583 13.4167 7 14 7ZM4.9 25.2C5.48333 25.2 5.97917 24.9958 6.3875 24.5875C6.79583 24.1792 7 23.6833 7 23.1C7 22.5167 6.79583 22.0208 6.3875 21.6125C5.97917 21.2042 5.48333 21 4.9 21C4.31667 21 3.82083 21.2042 3.4125 21.6125C3.00417 22.0208 2.8 22.5167 2.8 23.1C2.8 23.6833 3.00417 24.1792 3.4125 24.5875C3.82083 24.9958 4.31667 25.2 4.9 25.2Z" fill="black"/>
</svg>
